/* XPM */
static char * tg_icon_xpm[] = {
"15 20 111 2",
"  	c None",
". 	c #8C7E5D",
"+ 	c #887A5C",
"@ 	c #847456",
"# 	c #857453",
"$ 	c #87785A",
"% 	c #867961",
"& 	c #3C3A5A",
"* 	c #383759",
"= 	c #36355B",
"- 	c #36365E",
"; 	c #353556",
"> 	c #363657",
", 	c #353553",
"' 	c #635B6D",
") 	c #77707D",
"! 	c #7B7685",
"~ 	c #353551",
"{ 	c #413E5F",
"] 	c #FCFCF6",
"^ 	c #353656",
"/ 	c #3A385D",
"( 	c #706873",
"_ 	c #3E3C4E",
": 	c #383854",
"< 	c #36365D",
"[ 	c #4B4766",
"} 	c #AEA59F",
"| 	c #4D474F",
"1 	c #918675",
"2 	c #9B9489",
"3 	c #80797C",
"4 	c #686272",
"5 	c #5F596F",
"6 	c #998C87",
"7 	c #524D4F",
"8 	c #C0B6A5",
"9 	c #F6F3E8",
"0 	c #514C4F",
"a 	c #C0B7A6",
"b 	c #FCFAF4",
"c 	c #4E4A4F",
"d 	c #A79B88",
"e 	c #BBB1A1",
"f 	c #8F867C",
"g 	c #66616B",
"h 	c #4E4C67",
"i 	c #6B616A",
"j 	c #3F3D4D",
"k 	c #534D4F",
"l 	c #44414E",
"m 	c #36364F",
"n 	c #37375D",
"o 	c #6E646C",
"p 	c #403E4E",
"q 	c #35364B",
"r 	c #35364A",
"s 	c #35354E",
"t 	c #353554",
"u 	c #3D3C5A",
"v 	c #867C7B",
"w 	c #6D6458",
"x 	c #36364E",
"y 	c #35354D",
"z 	c #353550",
"A 	c #4A4659",
"B 	c #ABA197",
"C 	c #6D665B",
"D 	c #837760",
"E 	c #464458",
"F 	c #35364E",
"G 	c #35354C",
"H 	c #393850",
"I 	c #6E676B",
"J 	c #85806E",
"K 	c #6C6661",
"L 	c #3A3A53",
"M 	c #423F53",
"N 	c #918577",
"O 	c #6C6966",
"P 	c #ACA67D",
"Q 	c #B0A36C",
"R 	c #5A585F",
"S 	c #3B3A50",
"T 	c #5D555C",
"U 	c #6A6367",
"V 	c #6C6568",
"W 	c #59585F",
"X 	c #B0A879",
"Y 	c #AB9E66",
"Z 	c #5C5756",
"` 	c #3A3950",
" .	c #35354F",
"..	c #5B5756",
"+.	c #AAA070",
"@.	c #B1A161",
"#.	c #645E54",
"$.	c #413F4F",
"%.	c #36364D",
"&.	c #353648",
"*.	c #403F4F",
"=.	c #645E55",
"-.	c #AFA269",
";.	c #786B4E",
">.	c #554E4B",
",.	c #3C3B44",
"'.	c #776A4E",
").	c #AB9A60",
"!.	c #8E7B4C",
"~.	c #83734B",
"{.	c #8A784B",
"  . + @ # $ % @ # $ % @ + .   ",
"& * = - ; ; ; ; ; ; ; ; = * & ",
"> , ; ; ; ' ) ! ) ' ; ; ; , > ",
"~ ; ; ; { ] ] ] ] ] { ; ; ; ~ ",
"; ; ; ^ / ( ] ] ] ( / ^ ; ; ; ",
"; ; _ : < [ } ] } [ < : _ ; ; ",
"| 1 2 3 4 5 6 ] 6 5 4 3 2 1 | ",
"7 8 9 ] ] ] ] ] ] ] ] ] ] 8 7 ",
"0 a b ] ] ] ] ] ] ] ] ] ] a 0 ",
"c d e f g h i ] i h g f e d c ",
"j k l m > n o ] o n > m l k j ",
"p q r s t u v ] v u t s r q p ",
"w x q y z A B ] B A z y q x C ",
"D E F G H I ] ] ] I H G F E J ",
"  K L y M N ] ] ] N M y L O P ",
"  Q R F S T U V U T S F W X   ",
"    Y Z `  .s r s  .` ..+.    ",
"      @.#.$.%.&.%.*.=.-.      ",
"          ;.>.,.>.'.).        ",
"            !.~.{.            "};
